<svg width="204" height="38" viewBox="0 0 204 38" preserveAspectRatio="xMinYMid slice" xmlns="http://www.w3.org/2000/svg">
  <g fill="none" fill-rule="evenodd">
    <path class="text" d="M190.407 25.621c.568.224.843.861.614 1.422-.227.56-.874.831-1.442.606-1.096-.436-1.809-.59-2.245-.637l-.208-.017c-1.207-.064-2.159.331-2.305 1.039-.109.535.37.795 1.625 1.07l1.031.217c2.482.529 3.774 1.578 3.855 3.123l.004.086c.037 1.115-.437 2.064-1.338 2.673-.721.489-1.705.757-2.922.795l-.153.002c-1.547 0-3.189-.727-4.047-1.17a1.087 1.087 0 01-.467-1.476c.284-.534.956-.74 1.498-.46.734.38 1.447.651 2.072.797l.148.034c1.24.283 2.97.022 3.022-.989.028-.547-.557-.873-1.525-1.13l-.315-.077-.789-.167c-1.541-.327-3.799-.978-3.913-2.971l-.004-.093c-.066-2.001 1.655-3.404 4.284-3.488.905-.03 2.09.244 3.52.811zm9.322-.518c2.34.548 4.05 2.514 4.25 4.84l.017.307-.001.016.005.018-.021.203-.056.188-.022.048-.084.154-.12.15-.05.046-.107.09-.059.036-.142.076-.206.064-.206.027-.016-.002-.014.002-7.603.001c.38 1.079 1.337 1.952 2.561 2.24 1.21.283 2.487-.056 3.335-.886a1.111 1.111 0 011.556.003c.43.424.428 1.112-.004 1.534-1.382 1.355-3.45 1.914-5.397 1.458-2.606-.61-4.47-2.903-4.43-5.45.007-.383.055-.767.146-1.14.701-2.915 3.693-4.72 6.668-4.023zm-62.586 0c2.34.548 4.05 2.514 4.25 4.84l.017.307-.001.016.003.018-.018.184-.016.07-.05.153-.014.032-.085.154-.12.15-.05.046-.106.09-.06.036-.125.068-.05.02-.173.052-.206.027-.016-.002-.014.002-7.603.001c.38 1.079 1.338 1.952 2.562 2.24 1.21.283 2.487-.056 3.334-.886a1.111 1.111 0 011.556.003c.43.424.428 1.112-.003 1.534-1.383 1.355-3.45 1.914-5.397 1.458-2.606-.61-4.47-2.903-4.43-5.45.006-.383.054-.767.145-1.14.703-2.915 3.695-4.72 6.67-4.023zm41.697.02c.596 0 1.081.464 1.103 1.048v8.404c0 .602-.495 1.089-1.105 1.089-.59 0-1.067-.457-1.097-1.031-.901.752-2.04 1.23-3.35 1.23-2.996 0-5.12-2.145-5.264-5.259l-.008-.34v-4.053c0-.602.494-1.089 1.105-1.089.598 0 1.083.467 1.105 1.05v4.092c0 1.655.803 3.421 3.061 3.421 1.886 0 3.225-1.807 3.338-3.515l.007-.231V26.21c0-.602.496-1.089 1.105-1.089zm-17.018-.144c3.045 0 5.521 2.44 5.521 5.441s-2.478 5.442-5.521 5.442c-3.045 0-5.521-2.441-5.521-5.442 0-3 2.476-5.441 5.52-5.441zm-47.612 0a5.54 5.54 0 013.316 1.1c.066-.538.528-.957 1.09-.957.598 0 1.084.467 1.105 1.05v8.457c0 .602-.495 1.09-1.104 1.09a1.095 1.095 0 01-1.09-.959 5.54 5.54 0 01-3.317 1.102c-3.045 0-5.522-2.441-5.522-5.442 0-3 2.477-5.441 5.522-5.441zm-15.836-2.424c.446 0 .85.265 1.02.671l3.615 8.567 3.615-8.567a1.11 1.11 0 011.444-.587c.564.232.83.869.595 1.424l-4.634 10.983c-.17.406-.572.67-1.02.67-.446 0-.85-.264-1.02-.67l-3.615-8.567-3.615 8.567c-.17.406-.574.67-1.02.67-.445 0-.849-.264-1.02-.67l-4.634-10.983a1.083 1.083 0 01.595-1.424c.563-.229 1.21.032 1.445.587l3.615 8.567 3.615-8.567c.17-.406.573-.67 1.02-.67zm24.933 2.565c.597 0 1.083.467 1.104 1.05v.062c1.088-.725 2.552-1.11 4.35-1.11.609 0 1.104.487 1.104 1.086 0 .602-.495 1.089-1.105 1.089-2.806 0-4.23 1.048-4.341 3.202l-.007.282v3.846c0 .603-.494 1.09-1.105 1.09a1.098 1.098 0 01-1.104-1.05l-.001-8.458c0-.602.494-1.089 1.105-1.089zm21.232-3.878c.597 0 1.083.467 1.104 1.05v3.858a5.166 5.166 0 013.346-1.226c2.994 0 5.117 2.145 5.263 5.258l.008.34v4.053c0 .602-.496 1.089-1.105 1.089a1.098 1.098 0 01-1.105-1.05l-.001-4.195c-.033-1.624-.849-3.318-3.06-3.318-1.886 0-3.225 1.807-3.338 3.515l-.007.231v3.728c0 .602-.496 1.089-1.105 1.089a1.098 1.098 0 01-1.104-1.05l-.001-12.283c0-.602.495-1.089 1.105-1.089zm17.283 5.913c-1.826 0-3.313 1.465-3.313 3.265s1.487 3.265 3.313 3.265 3.313-1.465 3.313-3.265c0-1.801-1.487-3.265-3.313-3.265zm-47.612 0c-1.827 0-3.314 1.465-3.314 3.265s1.487 3.265 3.314 3.265c1.74 0 3.168-1.332 3.298-3.015l.004-.059v-.383c-.101-1.711-1.542-3.073-3.302-3.073zm84.274-.033h-.032c-1.256-.004-2.414.692-2.978 1.786l-.08.162-.051.119-.024.06 6.265-.002a3.78 3.78 0 00-.094-.21 3.342 3.342 0 00-2.269-1.826 3.451 3.451 0 00-.737-.09zm-62.586 0h-.032c-1.256-.004-2.414.692-2.978 1.786l-.08.162-.051.119-.024.06 6.265-.002a3.78 3.78 0 00-.094-.21 3.342 3.342 0 00-2.269-1.826 3.451 3.451 0 00-.737-.09zM128.563 2.55c.594 0 1.08.464 1.1 1.046l.002 1.563h4.65c.431 0 .82.247 1 .629l.018.04 3.09 7.322 3.073-7.284c.234-.555.88-.815 1.44-.586.55.226.816.838.61 1.384l-5.859 13.888a1.103 1.103 0 01-1.44.585 1.08 1.08 0 01-.611-1.382l1.593-3.777-3.65-8.648h-3.914v7.313c0 .6-.494 1.086-1.102 1.086-.594 0-1.08-.464-1.1-1.046l-.001-7.353h-1.455a1.094 1.094 0 01-1.101-1.085c0-.586.47-1.064 1.06-1.085h1.496V3.635c0-.599.494-1.086 1.101-1.086zm-11.781-1.094c.607 0 1.101.487 1.101 1.086v12.101c.002.6-.492 1.086-1.101 1.086-.61 0-1.102-.487-1.102-1.086V2.542c0-.6.494-1.086 1.102-1.086zm-5.134 4.011c.61 0 1.101.487 1.101 1.086v8.09c0 .6-.494 1.086-1.101 1.086-.61 0-1.101-.487-1.101-1.086v-8.09c0-.6.493-1.086 1.1-1.086zm10.307 0c.61 0 1.101.487 1.101 1.086v8.09c0 .6-.494 1.086-1.101 1.086-.61 0-1.102-.487-1.102-1.086v-8.09c0-.6.494-1.086 1.102-1.086zM105.082 2.55c.594 0 1.08.463 1.1 1.045l.002 1.563h1.454c.61 0 1.102.489 1.102 1.088 0 .585-.47 1.063-1.061 1.084l-1.495.001v7.312c0 .598-.492 1.085-1.102 1.085-.594 0-1.08-.464-1.1-1.045l-.001-7.354h-1.455a1.094 1.094 0 01-1.102-1.085c0-.586.47-1.064 1.061-1.085h1.496V3.633c0-.599.492-1.085 1.101-1.085zm-6.477 0c.61 0 1.102.486 1.102 1.085V9.76c.003 3.597-2.294 5.92-5.85 5.92-3.557 0-5.854-2.323-5.854-5.92V3.634c0-.6.494-1.085 1.102-1.085.61 0 1.101.486 1.101 1.085V9.76c0 3.142 2.122 3.71 3.495 3.747l.154.002c1.363 0 3.649-.487 3.649-3.749V3.634c0-.6.494-1.085 1.101-1.085zm14.043-1.14c.265.26.416.618.416.987a1.388 1.388 0 01-.63 1.161 1.351 1.351 0 01-.51.207 1.336 1.336 0 01-.553 0c-.09-.02-.18-.044-.265-.077a1.489 1.489 0 01-.245-.13 1.391 1.391 0 01-.522-1.695 1.416 1.416 0 011.03-.835c.46-.093.95.056 1.28.382zm9.584-.38a1.432 1.432 0 01.904.593c.05.078.094.158.13.242.037.084.062.17.082.261a1.297 1.297 0 010 .546 1.444 1.444 0 01-.211.502 1.481 1.481 0 01-.177.21c-.268.26-.632.409-1.007.409a1.32 1.32 0 01-.273-.028 1.388 1.388 0 01-.465-.177l-.045-.03a1.135 1.135 0 01-.175-.135l-.039-.038a1.296 1.296 0 01-.309-.452 1.439 1.439 0 01-.081-.26 1.578 1.578 0 010-.547 1.484 1.484 0 01.211-.503 1.44 1.44 0 011.455-.594z" fill="#FFF"></path>
    <path d="M29.272 1.183a4.95 4.95 0 013.806-.005 4.935 4.935 0 012.588 2.444l.107.241 6.42 15.425 6.42-15.425a4.96 4.96 0 014.13-3.04l.23-.016.231-.005a4.958 4.958 0 014.497 2.85l.094.211 6.418 15.425 6.422-15.425a4.932 4.932 0 012.234-2.468l.22-.11.24-.107a4.946 4.946 0 013.806.005 4.932 4.932 0 012.687 2.693 4.934 4.934 0 01.09 3.556l-.096.247-11.01 26.46a4.954 4.954 0 01-4.591 3.061 4.958 4.958 0 01-4.497-2.85l-.094-.211-6.42-15.428-6.42 15.428a4.96 4.96 0 01-4.13 3.04l-.23.016-.23.005c-1.91 0-3.662-1.073-4.434-2.697l-.088-.197-3.301-7.935a.837.837 0 011.498-.737l.047.094 3.301 7.935c.456 1.093 1.682 1.864 2.978 1.864 1.27 0 2.414-.72 2.966-1.85l.082-.18 7.191-17.283a.836.836 0 011.494-.1l.05.1 7.191 17.282a3.288 3.288 0 003.048 2.031 3.29 3.29 0 002.965-1.85l.082-.18 11.01-26.461c.34-.814.341-1.71.004-2.524a3.273 3.273 0 00-1.783-1.786 3.274 3.274 0 00-2.525-.004 3.273 3.273 0 00-1.698 1.583l-.09.199-7.192 17.282a.836.836 0 01-1.494.1l-.05-.1-7.19-17.282a3.29 3.29 0 00-3.048-2.031c-1.27 0-2.414.72-2.966 1.85l-.082.18-7.191 17.283a.836.836 0 01-1.494.1l-.05-.1-7.191-17.282a3.273 3.273 0 00-1.788-1.782 3.274 3.274 0 00-2.526.004 3.273 3.273 0 00-1.783 1.786 3.273 3.273 0 00-.074 2.319l.077.205 3.574 8.529c1.952 4.688 1.718 9.74-.644 13.86-2.375 4.141-6.66 6.915-11.751 7.611-.792.109-1.594.164-2.383.164-3.985 0-7.757-1.375-10.624-3.873-3.457-3.01-5.402-7.42-5.507-12.45L.8 20.444V5.771C.8 3.03 3.03.8 5.773.8a4.978 4.978 0 014.967 4.755l.005.215v14.673c0 2.337.728 4.2 2.1 5.397 1.311 1.142 3.126 1.623 5.119 1.352 2.045-.28 3.63-1.243 4.471-2.707.785-1.367.856-3.07.2-4.823l-.11-.278-4.868-11.703a4.937 4.937 0 01-.006-3.802 4.938 4.938 0 012.688-2.693 4.994 4.994 0 014.498.344.836.836 0 01-.868 1.428 3.321 3.321 0 00-2.986-.23 3.278 3.278 0 00-1.782 1.787 3.273 3.273 0 00-.075 2.319l.078.205 4.868 11.703c.972 2.334.909 4.67-.183 6.575-1.105 1.928-3.13 3.182-5.695 3.533-2.472.338-4.763-.282-6.446-1.749-1.678-1.462-2.595-3.64-2.668-6.305l-.005-.351V5.771a3.304 3.304 0 00-3.3-3.298 3.304 3.304 0 00-3.296 3.111l-.005.187v14.673c0 4.725 1.753 8.853 4.933 11.625 2.562 2.232 5.943 3.462 9.524 3.46.72 0 1.445-.05 2.155-.147 4.578-.627 8.413-3.101 10.527-6.788 2.037-3.552 2.289-7.904.705-12.001l-.154-.384L26.59 7.68a4.925 4.925 0 01-.005-3.804 4.932 4.932 0 012.687-2.693z" fill="#F495F9" fill-rule="nonzero"></path>
  </g>
</svg>